<?xml version="1.0" encoding="UTF-8" standalone="no"?>
<svg
   xmlns:dc="http://purl.org/dc/elements/1.1/"
   xmlns:cc="http://creativecommons.org/ns#"
   xmlns:rdf="http://www.w3.org/1999/02/22-rdf-syntax-ns#"
   xmlns:svg="http://www.w3.org/2000/svg"
   xmlns="http://www.w3.org/2000/svg"
   id="svg8"
   version="1.1"
   viewBox="0 0 135.46666 135.46667"
   height="512"
   width="512">
  <defs
     id="defs2" />
  <metadata
     id="metadata5">
    <rdf:RDF>
      <cc:Work
         rdf:about="">
        <dc:format>image/svg+xml</dc:format>
        <dc:type
           rdf:resource="http://purl.org/dc/dcmitype/StillImage" />
        <dc:title></dc:title>
      </cc:Work>
    </rdf:RDF>
  </metadata>
  <g
     transform="translate(0,-161.53331)"
     id="layer1">
    <circle
       r="33.866665"
       cy="229.26665"
       cx="67.73333"
       id="path817"
       style="stroke-width:16.93333244;stroke-miterlimit:4;stroke-dasharray:none;fill:#aa0000;fill-opacity:1" />
    <path
       id="path826"
       d="m 93.133324,178.46664 -25.39999,16.93333 v -33.86666 z"
       style="fill:#000000;fill-opacity:1;stroke:none;stroke-width:0.26458332px;stroke-linecap:butt;stroke-linejoin:miter;stroke-opacity:1" />
    <path
       id="path830"
       d="m 67.733332,229.26664 46.424248,3.81293 c -0.54219,6.31547 -2.06763,11.81252 -4.29019,16.53069 -2.65706,5.64057 -6.34397,10.24149 -10.67397,13.85834 -8.673869,7.24527 -20.116279,10.68833 -31.460088,10.33957 -11.389334,-0.35016 -22.270877,-4.49649 -30.074111,-11.89878 -3.883817,-3.68425 -7.039459,-8.19877 -9.193078,-13.55339 -2.152464,-5.35175 -3.36155,-11.68589 -3.188177,-19.08934 0.04058,0.0406 0.08086,0.0397 0.122034,-2e-5 0.0048,-0.32148 0.0628,-2.85295 0.67825,-6.54564 0.70135,-4.2081 2.088204,-9.68924 4.777625,-15.06809 2.672623,-5.34524 6.549408,-10.43394 12.204993,-14.20433 5.603225,-3.73548 13.453965,-6.51558 24.672464,-6.51558 h 8.466361 v -16.93272 h -8.466361 c -14.1815,0 -25.38076,3.5699 -34.065042,9.35942 -8.631912,5.75461 -14.280122,13.36591 -17.957499,20.72066 -3.660578,7.32116 -5.448723,14.54001 -6.3348742,19.85691 -0.7867909,4.72075 -0.8924614,8.12552 -0.9067279,9.07497 0.038653,0.12823 0.078936,0.21383 0.1195107,0.2544 0.174193,9.52854 2.1384774,18.01375 5.5430734,25.36065 3.403901,7.34539 8.1832,13.41415 13.825657,18.19659 11.250169,9.53542 25.761846,13.84704 39.775902,13.50124 14.053343,-0.34677 28.016625,-5.37436 38.389918,-15.06044 5.1944,-4.85028 9.44619,-10.83178 12.34477,-17.89165 2.89734,-7.05687 4.41157,-15.11299 4.23763,-24.10637 l -0.0872,-4.50786 -4.08513,0.33552 z"
       style="fill:#000000;fill-rule:nonzero;stroke:none;stroke-width:0.26499999;stroke-linecap:butt;stroke-linejoin:miter;stroke-miterlimit:4;stroke-dasharray:none;stroke-opacity:1" />
  </g>
</svg>
