<?xml version="1.0" encoding="UTF-8" standalone="no"?>
<svg
   xmlns:dc="http://purl.org/dc/elements/1.1/"
   xmlns:cc="http://creativecommons.org/ns#"
   xmlns:rdf="http://www.w3.org/1999/02/22-rdf-syntax-ns#"
   xmlns:svg="http://www.w3.org/2000/svg"
   xmlns="http://www.w3.org/2000/svg"
   id="svg8"
   version="1.1"
   viewBox="0 0 135.46666 135.46667"
   height="512"
   width="512">
  <defs
     id="defs2" />
  <metadata
     id="metadata5">
    <rdf:RDF>
      <cc:Work
         rdf:about="">
        <dc:format>image/svg+xml</dc:format>
        <dc:type
           rdf:resource="http://purl.org/dc/dcmitype/StillImage" />
        <dc:title></dc:title>
      </cc:Work>
    </rdf:RDF>
  </metadata>
  <g
     transform="translate(0,-161.53331)"
     id="layer1">
    <circle
       r="33.866665"
       cy="229.26665"
       cx="67.73333"
       id="path817"
       style="stroke-width:16.93333244;stroke-miterlimit:4;stroke-dasharray:none;fill:#aa0000;fill-opacity:1" />
    <path
       id="path819"
       d="m 67.733332,229.26664 -50.799999,-4.23334 -4.143559,-0.34529 -0.08978,4.57863 c -0.176491,9.00108 1.336672,17.06667 4.235752,24.13389 2.900343,7.07028 7.156286,13.06186 12.356977,17.92115 10.385697,9.70391 24.367486,14.74314 38.440606,15.09497 14.033308,0.35083 28.571428,-3.96189 39.846829,-13.51295 5.65534,-4.79046 10.44649,-10.8706 13.85955,-18.23056 3.41375,-7.36143 5.38353,-15.86237 5.56029,-25.40636 l 0,-8.46681 h -16.93334 v 8.46667 c 0,0 -6e-5,-2e-5 -6e-5,-2e-5 0.17595,7.38797 -1.02759,13.70641 -3.1709,19.04352 -2.1445,5.34007 -5.28823,9.84322 -9.159202,13.51944 -7.778077,7.38676 -18.632966,11.53174 -30.003153,11.88706 -11.323961,0.35387 -22.748034,-3.07765 -31.409418,-10.30504 -4.323674,-3.60784 -8.006471,-8.19865 -10.66176,-13.82885 -2.214751,-4.69609 -3.738325,-10.16715 -4.286244,-16.45299 z"
       style="fill:#000000;fill-rule:nonzero;stroke:none;stroke-width:16.93333244;stroke-linecap:butt;stroke-linejoin:miter;stroke-miterlimit:4;stroke-dasharray:none;stroke-opacity:1" />
    <path
       id="path825"
       d="M 135.46666,229.26664 H 101.6 l 16.93333,-25.4 z"
       style="fill:#000000;stroke:none;stroke-width:0;stroke-linecap:butt;stroke-linejoin:miter;stroke-opacity:1;fill-opacity:1;stroke-miterlimit:4;stroke-dasharray:none" />
  </g>
</svg>
