<?xml version="1.0" encoding="UTF-8" standalone="no"?>
<svg
   xmlns:dc="http://purl.org/dc/elements/1.1/"
   xmlns:cc="http://creativecommons.org/ns#"
   xmlns:rdf="http://www.w3.org/1999/02/22-rdf-syntax-ns#"
   xmlns:svg="http://www.w3.org/2000/svg"
   xmlns="http://www.w3.org/2000/svg"
   id="svg8"
   version="1.1"
   viewBox="0 0 135.46666 135.46667"
   height="512"
   width="512">
  <defs
     id="defs2" />
  <metadata
     id="metadata5">
    <rdf:RDF>
      <cc:Work
         rdf:about="">
        <dc:format>image/svg+xml</dc:format>
        <dc:type
           rdf:resource="http://purl.org/dc/dcmitype/StillImage" />
        <dc:title></dc:title>
      </cc:Work>
    </rdf:RDF>
  </metadata>
  <g
     transform="translate(0,-161.53331)"
     id="layer1">
    <circle
       r="33.866665"
       cy="229.26665"
       cx="67.73333"
       id="path817"
       style="stroke-width:16.93333244;stroke-miterlimit:4;stroke-dasharray:none;fill:#aa0000;fill-opacity:1" />
    <path
       id="path819"
       d="m 67.733332,229.26664 -4.233335,50.8 -0.342743,4.11291 4.57608,0.12043 c 13.429892,0.35342 24.005817,-2.6626 32.304036,-7.7679 8.2843,-5.09674 13.94808,-12.06118 17.82558,-19.02563 3.85918,-6.93157 5.96082,-13.8794 7.18417,-19.08439 1.2295,-5.23115 1.6001,-8.80262 1.95288,-9.15542 l -8.46667,0 v -16.93334 8.46667 l 0,0 -8.46667,8.46667 c 0.35536,-0.35534 0.72316,2.42828 0.36538,6.71958 -0.35977,4.31506 -1.44189,10.07712 -3.92832,15.8406 -2.47205,5.73015 -6.33419,11.47653 -12.336929,15.89938 -5.330936,3.92787 -12.6073,7.00046 -22.571663,7.88193 z"
       style="fill:#000000;fill-rule:nonzero;stroke:none;stroke-width:16.93333244;stroke-linecap:butt;stroke-linejoin:miter;stroke-miterlimit:4;stroke-dasharray:none;stroke-opacity:1" />
    <path
       id="path825"
       d="M 135.46666,229.26664 H 101.6 l 16.93333,-25.4 z"
       style="fill:#000000;stroke:none;stroke-width:0;stroke-linecap:butt;stroke-linejoin:miter;stroke-opacity:1;fill-opacity:1;stroke-miterlimit:4;stroke-dasharray:none" />
  </g>
</svg>
